P2
# CREATOR: GIMP PNM Filter Version 1.1
4 7
255
0
205
205
205
0
254
205
205
0
254
254
205
0
254
254
254
0
254
254
254
0
254
254
254
0
254
254
254
